<?xml version="1.0" encoding="UTF-8" standalone="no"?>
<!-- Created with Inkscape (http://www.inkscape.org/) -->

<svg
   width="74.320587mm"
   height="42.174511mm"
   viewBox="0 0 74.320587 42.174511"
   version="1.1"
   id="svg2474"
   sodipodi:docname="logo-cafe-color.svg"
   inkscape:version="1.1 (c4e8f9e, 2021-05-24)"
   xmlns:inkscape="http://www.inkscape.org/namespaces/inkscape"
   xmlns:sodipodi="http://sodipodi.sourceforge.net/DTD/sodipodi-0.dtd"
   xmlns="http://www.w3.org/2000/svg"
   xmlns:svg="http://www.w3.org/2000/svg">
  <sodipodi:namedview
     id="namedview2476"
     pagecolor="#ffffff"
     bordercolor="#999999"
     borderopacity="1"
     inkscape:pageshadow="0"
     inkscape:pageopacity="0"
     inkscape:pagecheckerboard="0"
     inkscape:document-units="mm"
     showgrid="false"
     fit-margin-top="0"
     fit-margin-left="0"
     fit-margin-right="0"
     fit-margin-bottom="0"
     inkscape:zoom="1.5466549"
     inkscape:cx="142.24246"
     inkscape:cy="140.30279"
     inkscape:window-width="1312"
     inkscape:window-height="788"
     inkscape:window-x="0"
     inkscape:window-y="25"
     inkscape:window-maximized="0"
     inkscape:current-layer="layer1" />
  <defs
     id="defs2471" />
  <g
     inkscape:label="Layer 1"
     inkscape:groupmode="layer"
     id="layer1"
     transform="translate(-71.459847,-82.285538)">
    <g
       id="g2430"
       style="display:inline"
       transform="matrix(0.35277777,0,0,-0.35277777,-25.659225,275.06282)">
      <g
         id="g2120"
         transform="translate(333.9364,471.0775)">
        <path
           d="M 0,0 3.118,4.995 C 3.474,5.565 2.992,6.289 2.329,6.18 L -11.003,3.991 c -0.475,-0.078 -0.908,0.289 -0.908,0.771 v 11.354 c 0,0.485 0.438,0.853 0.917,0.769 l 8.185,-1.434 c 0.479,-0.084 0.917,0.284 0.917,0.77 v 5.309 c 0,0.486 -0.438,0.854 -0.917,0.77 l -8.185,-1.435 c -0.479,-0.084 -0.917,0.284 -0.917,0.77 V 30.3 c 0,0.484 0.436,0.852 0.914,0.77 l 10.83,-1.707 c 0.313,-0.054 0.628,0.087 0.796,0.357 l 2.776,4.452 c 0.325,0.52 -0.05,1.194 -0.663,1.194 h -25.264 c -0.696,0 -1.044,-0.841 -0.552,-1.333 l 1.94,-1.941 c 0.147,-0.146 0.229,-0.345 0.229,-0.552 V 3.459 c 0,-0.207 -0.082,-0.406 -0.229,-0.552 l -1.94,-1.941 c -0.492,-0.492 -0.144,-1.334 0.552,-1.334 h 21.859 c 0.27,0 0.52,0.139 0.663,0.368"
           style="fill:#271319;fill-opacity:1;fill-rule:nonzero;stroke:none"
           id="path2122" />
      </g>
      <g
         id="g2124"
         transform="translate(347.7626,470.7099)">
        <path
           d="m 0,0 c 0.696,0 1.045,0.842 0.552,1.334 l -1.797,1.797 c -0.19,0.191 -0.269,0.467 -0.208,0.73 L 2.893,22.51 c 0.182,0.783 1.287,0.813 1.511,0.04 L 10.879,0.091 c 0.097,-0.334 0.403,-0.564 0.75,-0.564 h 1.014 c 0.347,0 0.652,0.229 0.75,0.562 l 6.835,22.9 c 0.226,0.771 1.329,0.741 1.511,-0.042 L 26.204,3.786 C 26.266,3.523 26.187,3.247 25.996,3.056 L 24.274,1.334 C 23.781,0.842 24.13,0 24.826,0 h 11.909 c 0.696,0 1.044,0.842 0.552,1.334 l -1.82,1.82 C 35.363,3.258 35.291,3.388 35.258,3.53 l -6.626,28.435 c -0.061,0.263 0.017,0.539 0.208,0.73 l 1.705,1.705 c 0.493,0.492 0.144,1.334 -0.552,1.334 H 19.84 c -0.348,0 -0.654,-0.23 -0.75,-0.564 L 15.166,21.63 c -0.218,-0.751 -1.283,-0.751 -1.501,0 L 9.741,35.17 C 9.644,35.504 9.338,35.734 8.99,35.734 H -1.133 c -0.696,0 -1.045,-0.842 -0.553,-1.334 l 1.701,-1.7 c 0.191,-0.191 0.27,-0.467 0.208,-0.73 L -6.376,3.652 C -6.409,3.51 -6.481,3.38 -6.584,3.277 L -8.527,1.334 C -9.019,0.842 -8.671,0 -7.975,0 Z"
           style="fill:#271319;fill-opacity:1;fill-rule:nonzero;stroke:none"
           id="path2126" />
      </g>
      <g
         id="g2128"
         transform="translate(304.7889,505.8735)">
        <path
           d="m 0,0 c -0.095,0.337 -0.402,0.57 -0.752,0.57 h -25.975 c -0.347,0 -0.652,-0.228 -0.75,-0.561 l -1.981,-6.753 c -0.182,-0.622 0.427,-1.183 1.031,-0.949 l 9.131,3.528 c 0.512,0.198 1.063,-0.18 1.063,-0.729 v -26.443 c 0,-0.207 -0.083,-0.406 -0.229,-0.552 l -1.94,-1.941 c -0.493,-0.492 -0.144,-1.334 0.552,-1.334 h 12.228 c 0.696,0 1.044,0.842 0.552,1.334 l -1.94,1.941 c -0.147,0.146 -0.229,0.345 -0.229,0.552 v 26.59 c 0,0.541 0.537,0.918 1.046,0.735 L 0.745,-7.23 c 0.597,-0.215 1.188,0.335 1.017,0.946 z"
           style="fill:#271319;fill-opacity:1;fill-rule:nonzero;stroke:none"
           id="path2130" />
      </g>
      <g
         id="g2132"
         transform="translate(399.714,501.5327)">
        <path
           d="m 0,0 c 0,0.432 0.35,0.781 0.781,0.781 h 1.583 c 3.719,0 7.619,-1.306 7.619,-7.254 0,-5.949 -4.319,-7.408 -7.521,-7.408 H 0.781 C 0.35,-13.881 0,-13.531 0,-13.1 Z m -9.223,-27.549 -1.94,-1.94 c -0.493,-0.492 -0.144,-1.334 0.552,-1.334 H 1.617 c 0.696,0 1.044,0.842 0.552,1.334 l -1.94,1.94 C 0.082,-27.402 0,-27.203 0,-26.996 v 7.943 c 0,0.432 0.35,0.782 0.781,0.782 h 4.778 c 6.584,0 13.994,3.115 13.994,11.763 0,8.648 -6.629,11.419 -13.801,11.419 h -16.363 c -0.696,0 -1.045,-0.841 -0.552,-1.334 l 1.94,-1.94 C -9.077,1.49 -8.994,1.292 -8.994,1.084 v -28.08 c 0,-0.207 -0.083,-0.406 -0.229,-0.553"
           style="fill:#271319;fill-opacity:1;fill-rule:nonzero;stroke:none"
           id="path2134" />
      </g>
      <g
         id="g2136"
         transform="translate(454.1375,506.4439)">
        <path
           d="M 0,0 H -8.228 C -8.924,0 -9.272,-0.842 -8.78,-1.334 l 2,-2 c 0.147,-0.147 0.229,-0.346 0.229,-0.553 v -19.816 c 0,-6.081 -3.259,-8.012 -7.247,-8.012 -3.988,0 -6.873,2.666 -6.873,8.012 v 19.876 c 0,0.208 0.082,0.406 0.229,0.553 l 1.94,1.94 C -18.01,-0.842 -18.358,0 -19.055,0 h -12.227 c -0.696,0 -1.045,-0.842 -0.553,-1.334 l 1.941,-1.94 c 0.146,-0.147 0.228,-0.345 0.228,-0.553 v -19.876 c 0,-4.243 1.534,-13.328 14.177,-13.328 12.642,0 13.812,8.576 13.812,13.328 v 19.816 c 0,0.207 0.083,0.406 0.229,0.553 l 2.001,2 C 1.045,-0.842 0.696,0 0,0"
           style="fill:#271319;fill-opacity:1;fill-rule:nonzero;stroke:none"
           id="path2138" />
      </g>
      <g
         id="g2140"
         transform="translate(473.6377,493.9377)">
        <path
           d="m 0,0 c -4.931,1.621 -7.634,2.441 -7.634,5.044 0,2.602 2.544,3.925 4.92,3.925 2.962,0 6.901,-1.74 8.402,-2.46 0.355,-0.17 0.781,-0.047 0.994,0.285 l 3.007,4.708 C 10.022,12.023 9.65,12.705 9.032,12.704 8.21,12.703 7.093,12.703 5.839,12.703 c -2.602,0 -4.933,0.628 -9.232,0.628 -5.204,0 -12.784,-3.004 -12.784,-11.15 0,-7.542 5.916,-9.326 12.705,-11.245 5.204,-1.471 6.562,-3.949 6.562,-6.099 0,-2.149 -1.522,-4.594 -5.475,-4.594 -3.881,0 -8.018,2.46 -9.565,3.479 -0.356,0.234 -0.833,0.138 -1.073,-0.214 l -3.758,-5.514 c -0.354,-0.519 0.018,-1.222 0.645,-1.222 h 2.252 c 5.722,0 6.48,-0.65 10.179,-0.803 0.419,-0.017 0.847,-0.035 1.296,-0.035 8.824,0 14.742,4.293 14.742,11.505 C 12.333,-4.381 6.209,-2.042 0,0"
           style="fill:#271319;fill-opacity:1;fill-rule:nonzero;stroke:none"
           id="path2142" />
      </g>
      <g
         id="g2144"
         transform="translate(401.9717,513.4217)">
        <path
           d="M 0,0 C -3.933,8.821 -12.778,14.97 -23.06,14.97 -33.341,14.97 -42.186,8.821 -46.119,0 Z"
           style="fill:#91a6b4;fill-opacity:1;fill-rule:nonzero;stroke:none"
           id="path2146" />
      </g>
      <g
         id="g2148"
         transform="translate(406.8441,512.8383)">
        <path
           d="M 0,0 C -0.243,0 -0.47,0.154 -0.553,0.397 -1.018,1.777 0.28,3.723 1.451,5.112 2.519,6.379 3.887,7.681 5.42,8.898 -1.36,7.757 -5.251,8.325 -7.382,10.697 c -2.223,2.475 -2.388,6.85 -0.487,13.671 -4.937,-5.011 -9.171,-7.047 -12.612,-6.051 -3.412,0.988 -5.913,4.916 -7.451,11.69 -1.538,-6.774 -4.038,-10.702 -7.451,-11.69 -3.439,-0.995 -7.675,1.04 -12.612,6.051 1.901,-6.821 1.737,-11.196 -0.487,-13.67 -2.131,-2.373 -6.023,-2.94 -12.802,-1.8 1.533,-1.217 2.901,-2.519 3.969,-3.786 1.171,-1.389 2.469,-3.335 2.004,-4.715 -0.103,-0.305 -0.434,-0.469 -0.739,-0.366 -0.305,0.103 -0.469,0.433 -0.366,0.739 0.457,1.355 -2.699,5.361 -7.606,8.692 -0.23,0.157 -0.318,0.454 -0.209,0.71 0.108,0.256 0.382,0.401 0.655,0.344 7.902,-1.63 12.157,-1.343 14.227,0.961 2.137,2.379 1.982,7.26 -0.475,14.922 -0.084,0.262 0.027,0.547 0.265,0.684 0.24,0.137 0.541,0.089 0.725,-0.116 5.349,-5.969 9.765,-8.501 13.127,-7.529 3.41,0.987 5.833,5.594 7.2,13.693 0.047,0.28 0.29,0.486 0.575,0.486 0.285,0 0.528,-0.206 0.575,-0.486 1.367,-8.099 3.79,-12.706 7.2,-13.693 3.364,-0.973 7.779,1.56 13.127,7.529 0.184,0.205 0.486,0.253 0.724,0.116 0.239,-0.137 0.35,-0.422 0.266,-0.684 C -8.497,18.737 -8.652,13.856 -6.515,11.477 -4.445,9.173 -0.19,8.886 7.712,10.516 7.986,10.572 8.259,10.428 8.367,10.172 8.476,9.916 8.388,9.619 8.158,9.462 3.251,6.131 0.095,2.125 0.553,0.77 0.656,0.465 0.492,0.134 0.187,0.031 0.125,0.01 0.062,0 0,0"
           style="fill:#271319;fill-opacity:1;fill-rule:nonzero;stroke:none"
           id="path2150" />
      </g>
      <g
         id="g2152"
         transform="translate(332.0097,437.6009)">
        <path
           d="M 0,0 C -0.29,1.647 0.102,3.583 0.752,5.963 -2.203,0.597 -5.927,-3.856 -9.344,-4.458 c -2.238,-0.395 -4.214,0.704 -4.656,3.206 -1.18,6.692 10.349,15.059 9.251,21.283 -0.38,2.157 -2.07,2.823 -4.349,2.421 -4.597,-0.81 -7.268,-6.001 -6.813,-8.583 0.18,-1.018 0.81,-1.62 1.908,-1.426 2.36,0.416 3.567,3.922 3.355,5.122 -0.122,0.692 -0.851,0.542 -0.962,1.173 -0.086,0.488 0.264,0.885 0.711,0.964 0.549,0.097 1.225,-0.287 1.441,-1.508 0.638,-3.621 -2.955,-10.483 -7.145,-11.222 -1.77,-0.312 -3.012,0.664 -3.342,2.536 -0.778,4.414 3.97,14.123 12.452,15.619 4.089,0.721 6.404,-0.99 6.928,-3.959 C 0.575,14.699 -7.87,6.33 -7.239,2.751 -7.113,2.038 -6.64,1.618 -5.827,1.762 -2.552,2.339 2.345,11.32 4.028,15.811 l 4.277,11.43 4.618,0.814 L 5.9,9.241 C 4.406,5.223 4.923,3.364 7.161,3.758 c 2.013,0.355 4.38,3.583 5.513,6.677 0.067,0.096 0.181,0.158 0.304,0.18 0.427,0.075 1.02,-0.198 1.075,-0.628 C 11.682,4.283 7.801,-1.54 3.366,-2.322 1.434,-2.663 0.326,-1.852 0,0"
           style="fill:#91a6b4;fill-opacity:1;fill-rule:nonzero;stroke:none"
           id="path2154" />
      </g>
      <g
         id="g2156"
         transform="translate(346.2754,452.3435)">
        <path
           d="m 0,0 3.082,0.481 -0.037,-2.88 c 1.587,2.776 2.947,3.98 4.738,4.296 2.135,0.376 3.011,-0.665 3.316,-2.394 0.448,-2.542 -0.616,-5.666 -2.309,-8.314 3.226,1.45 5.535,3.934 6.87,7.545 0.309,0.391 1.299,0.125 1.379,-0.448 -2.153,-6.819 -7.516,-9.946 -11.404,-10.736 -1.128,-0.975 -2.314,-1.625 -3.413,-1.818 -1.098,-0.194 -1.885,0.107 -2.054,1.064 -0.222,1.26 0.906,2.236 4.541,3.149 1.537,2.348 2.629,5.791 2.309,7.602 C 6.853,-1.518 6.301,-1.238 5.65,-1.352 4.633,-1.532 3.156,-3.387 2.117,-5.583 l -1.768,-4.842 -4.744,-14.134 -4.983,-0.879 z"
           style="fill:#91a6b4;fill-opacity:1;fill-rule:nonzero;stroke:none"
           id="path2158" />
      </g>
      <g
         id="g2160"
         transform="translate(378.8458,455.9193)">
        <path
           d="M 0,0 C 2.807,0.495 4.623,2.094 4.404,3.336 4.278,4.047 3.465,4.617 1.959,4.352 -0.176,3.975 -2.364,2.226 -3.676,0.149 -2.559,-0.116 -1.363,-0.24 0,0 m -16.406,-19.839 c -0.965,5.471 3.827,10.532 9.5,13.21 -0.825,0.756 -1.446,1.779 -1.68,3.102 -0.132,0.752 -0.102,1.534 0.094,2.323 -0.727,0.082 -1.464,0.098 -2.278,-0.045 -2.278,-0.402 -2.959,-1.654 -2.805,-2.529 0.108,-0.61 0.604,-1.047 1.255,-0.932 0.147,-0.834 -0.891,-1.604 -2.153,-1.827 -1.485,-0.261 -3.276,0.261 -3.667,2.478 -0.405,2.299 1.037,4.945 5.248,5.687 2.237,0.395 3.989,0.095 5.579,-0.358 1.599,2.232 4.556,4.138 8.624,4.855 C 5.217,6.814 6.925,5.689 7.198,4.143 7.603,1.844 4.779,-1.171 0.141,-1.988 c -1.932,-0.341 -3.462,-0.234 -4.805,0.012 -0.271,-0.845 -0.351,-1.698 -0.215,-2.471 0.076,-0.427 0.212,-0.843 0.378,-1.191 1.029,0.349 2.052,0.613 3.049,0.789 2.217,0.391 2.872,0.129 3.001,-0.603 0.226,-1.282 -0.986,-2.377 -2.898,-2.714 -1.018,-0.179 -2.183,-0.112 -3.273,0.241 -5.401,-1.959 -6.632,-5.805 -6.119,-8.714 0.445,-2.522 2.572,-4.475 5.603,-3.94 3.01,0.531 4.183,2.919 3.914,4.444 -0.201,1.139 -1.078,1.593 -1.891,1.449 -0.875,-0.154 -1.685,-1.031 -1.427,-2.495 -1.159,-0.205 -1.989,0.698 -2.197,1.877 -0.305,1.729 0.651,4.037 3.682,4.572 1.871,0.33 3.834,-0.457 4.254,-2.836 0.671,-3.804 -2.387,-10.132 -8.896,-11.28 -4.862,-0.857 -8.043,1.245 -8.707,5.009"
           style="fill:#91a6b4;fill-opacity:1;fill-rule:nonzero;stroke:none"
           id="path2162" />
      </g>
      <g
         id="g2164"
         transform="translate(386.6912,438.3216)">
        <path
           d="M 0,0 C 0.956,0.169 2.488,1.949 3.333,3.818 3.589,4.387 3.841,4.977 4.07,5.583 L 5.183,8.905 5.248,9.252 C 5.063,9.827 4.308,10.303 3.474,10.156 0.504,9.632 -1.628,3.761 -1.151,1.055 -1,0.201 -0.529,-0.093 0,0 M 2.776,-0.874 C 2.675,-0.304 2.66,0.259 2.742,0.861 0.8,-2.754 -0.433,-4.208 -2.121,-4.506 c -2.014,-0.355 -3.011,0.665 -3.316,2.393 -0.929,5.269 4.238,12.955 9.079,13.808 1.404,0.248 2.231,-0.278 2.87,-1.046 l 0.427,1.145 3.763,0.664 L 7.801,3.934 C 7.315,2.527 7.584,1.358 8.764,1.566 c 1.485,0.262 3.812,3.001 5.566,7.567 0.308,0.39 1.299,0.124 1.379,-0.448 C 13.875,3.264 9.433,-2.469 5.751,-3.118 3.941,-3.437 3.048,-2.42 2.776,-0.874"
           style="fill:#91a6b4;fill-opacity:1;fill-rule:nonzero;stroke:none"
           id="path2166" />
      </g>
      <g
         id="g2168"
         transform="translate(402.6001,440.2876)">
        <path
           d="M 0,0 C -0.495,2.807 2.141,7.005 5.128,9.692 3.636,9.114 1.631,9.306 0.588,9.751 0.41,8.378 0.069,7.458 -0.199,6.719 -0.594,6.46 -1.496,6.699 -1.578,7.167 c 0.907,2.468 0.683,4.211 0.097,5.156 l 0.713,1.07 C 1.561,12.084 7.887,12.486 9.526,13.299 l 0.802,-1.096 C 8.39,10.226 4.407,5.811 4.874,3.166 5.017,2.353 5.691,1.863 7.074,2.107 c 2.095,0.37 4.423,3.109 6.176,7.675 0.309,0.39 1.3,0.124 1.38,-0.449 C 12.796,3.913 8.354,-1.82 4.611,-2.48 2.272,-2.893 0.355,-2.014 0,0"
           style="fill:#91a6b4;fill-opacity:1;fill-rule:nonzero;stroke:none"
           id="path2170" />
      </g>
      <g
         id="g2172"
         transform="translate(413.848,445.7317)">
        <path
           d="m 0,0 9.086,23.289 4.17,0.735 -8.75,-23.292 c -0.573,-1.507 -0.258,-2.584 0.882,-2.383 1.525,0.269 3.873,3.012 5.708,7.592 0.309,0.391 1.3,0.125 1.379,-0.448 C 10.601,0.065 6.118,-5.675 2.375,-6.335 0.3,-6.701 -2.079,-5.337 0,0"
           style="fill:#91a6b4;fill-opacity:1;fill-rule:nonzero;stroke:none"
           id="path2174" />
      </g>
      <g
         id="g2176"
         transform="translate(423.3362,431.2968)">
        <path
           d="M 0,0 C 1.424,0.251 2.41,2.27 3.61,5.46 L 4.348,7.457 C 0.2,4.692 -1.221,2.05 -0.981,0.687 -0.891,0.178 -0.59,-0.104 0,0 M -5.595,-1.93 C -5.983,0.267 -3.353,4.506 5.206,9.727 l 1.226,3.278 C 5.144,11.268 3.71,10.008 2.225,9.746 c -1.75,-0.308 -2.958,0.716 -3.202,2.1 -0.287,1.627 0.707,3.606 1.555,5.811 L 3.27,24.634 7.379,25.358 3.938,16.445 C 3.361,14.96 3.644,14.066 4.56,14.227 c 1.179,0.208 3.074,2.43 4.241,5.09 l 2.524,6.737 4.13,0.728 -5.274,-14.101 c 3.362,2.459 6.535,5.284 8.548,10.756 0.326,0.414 1.307,0.084 1.379,-0.449 C 17.3,15.362 12.492,12.417 9.266,10.254 6.31,2.518 1.619,-2.756 -2.572,-3.495 -4.179,-3.778 -5.373,-3.191 -5.595,-1.93"
           style="fill:#91a6b4;fill-opacity:1;fill-rule:nonzero;stroke:none"
           id="path2178" />
      </g>
    </g>
  </g>
</svg>
